<svg width="17" height="17" viewBox="0 0 17 17" fill="none" xmlns="http://www.w3.org/2000/svg">
<path d="M8.33333 5.83333C7.67029 5.83333 7.03441 6.09673 6.56557 6.56557C6.09673 7.03441 5.83333 7.67029 5.83333 8.33333C5.83333 8.99638 6.09673 9.63226 6.56557 10.1011C7.03441 10.5699 7.67029 10.8333 8.33333 10.8333C8.99638 10.8333 9.63226 10.5699 10.1011 10.1011C10.5699 9.63226 10.8333 8.99638 10.8333 8.33333C10.8333 7.67029 10.5699 7.03441 10.1011 6.56557C9.63226 6.09673 8.99638 5.83333 8.33333 5.83333ZM8.33333 4.16667C9.4384 4.16667 10.4982 4.60565 11.2796 5.38706C12.061 6.16846 12.5 7.22826 12.5 8.33333C12.5 9.4384 12.061 10.4982 11.2796 11.2796C10.4982 12.061 9.4384 12.5 8.33333 12.5C7.22826 12.5 6.16846 12.061 5.38706 11.2796C4.60565 10.4982 4.16667 9.4384 4.16667 8.33333C4.16667 7.22826 4.60565 6.16846 5.38706 5.38706C6.16846 4.60565 7.22826 4.16667 8.33333 4.16667ZM13.75 3.95833C13.75 4.2346 13.6403 4.49955 13.4449 4.6949C13.2496 4.89025 12.9846 5 12.7083 5C12.4321 5 12.1671 4.89025 11.9718 4.6949C11.7764 4.49955 11.6667 4.2346 11.6667 3.95833C11.6667 3.68207 11.7764 3.41711 11.9718 3.22176C12.1671 3.02641 12.4321 2.91667 12.7083 2.91667C12.9846 2.91667 13.2496 3.02641 13.4449 3.22176C13.6403 3.41711 13.75 3.68207 13.75 3.95833ZM8.33333 1.66667C6.27167 1.66667 5.935 1.6725 4.97583 1.715C4.3225 1.74583 3.88417 1.83333 3.4775 1.99167C3.13718 2.11661 2.82951 2.31688 2.5775 2.5775C2.31667 2.8295 2.11613 3.13715 1.99083 3.4775C1.8325 3.88583 1.745 4.32333 1.715 4.97583C1.67167 5.89583 1.66667 6.2175 1.66667 8.33333C1.66667 10.395 1.6725 10.7317 1.715 11.6908C1.74583 12.3433 1.83333 12.7825 1.99083 13.1883C2.1325 13.5508 2.29917 13.8117 2.57583 14.0883C2.85667 14.3683 3.1175 14.5358 3.47583 14.6742C3.8875 14.8333 4.32583 14.9217 4.97583 14.9517C5.89583 14.995 6.2175 15 8.33333 15C10.395 15 10.7317 14.9942 11.6908 14.9517C12.3425 14.9208 12.7817 14.8333 13.1883 14.6758C13.5281 14.5503 13.8356 14.3504 14.0883 14.0908C14.3692 13.81 14.5367 13.5492 14.675 13.1908C14.8333 12.78 14.9217 12.3408 14.9517 11.6908C14.995 10.7708 15 10.4492 15 8.33333C15 6.27167 14.9942 5.935 14.9517 4.97583C14.9208 4.32417 14.8333 3.88417 14.675 3.4775C14.5494 3.1375 14.3492 2.82997 14.0892 2.5775C13.8373 2.31654 13.5296 2.11597 13.1892 1.99083C12.7808 1.8325 12.3425 1.745 11.6908 1.715C10.7708 1.67167 10.4492 1.66667 8.33333 1.66667ZM8.33333 0C10.5975 0 10.88 0.00833329 11.7683 0.05C12.6558 0.0916666 13.26 0.230833 13.7917 0.4375C14.3417 0.649167 14.805 0.935833 15.2683 1.39833C15.6921 1.81491 16.02 2.31882 16.2292 2.875C16.435 3.40583 16.575 4.01083 16.6167 4.89833C16.6558 5.78667 16.6667 6.06917 16.6667 8.33333C16.6667 10.5975 16.6583 10.88 16.6167 11.7683C16.575 12.6558 16.435 13.26 16.2292 13.7917C16.0206 14.3481 15.6926 14.8522 15.2683 15.2683C14.8516 15.6919 14.3478 16.0198 13.7917 16.2292C13.2608 16.435 12.6558 16.575 11.7683 16.6167C10.88 16.6558 10.5975 16.6667 8.33333 16.6667C6.06917 16.6667 5.78667 16.6583 4.89833 16.6167C4.01083 16.575 3.40667 16.435 2.875 16.2292C2.31861 16.0204 1.81461 15.6925 1.39833 15.2683C0.974505 14.8518 0.646609 14.3479 0.4375 13.7917C0.230833 13.2608 0.0916666 12.6558 0.05 11.7683C0.0108333 10.88 0 10.5975 0 8.33333C0 6.06917 0.00833329 5.78667 0.05 4.89833C0.0916666 4.01 0.230833 3.40667 0.4375 2.875C0.64603 2.31848 0.974003 1.81443 1.39833 1.39833C1.81473 0.974359 2.31869 0.646441 2.875 0.4375C3.40667 0.230833 4.01 0.0916666 4.89833 0.05C5.78667 0.0108333 6.06917 0 8.33333 0Z" fill="#BABEC4"/>
</svg>
