<svg width="17" height="14" viewBox="0 0 17 14" fill="none" xmlns="http://www.w3.org/2000/svg">
<path d="M11.5875 1.66774C10.9541 1.66763 10.3461 1.91617 9.89409 2.35988C9.44212 2.80358 9.18241 3.40698 9.17083 4.04024L9.1475 5.35274C9.14613 5.42321 9.12988 5.49259 9.09982 5.55634C9.06975 5.62009 9.02655 5.67676 8.97304 5.72264C8.91953 5.76851 8.85692 5.80256 8.78933 5.82254C8.72174 5.84252 8.65069 5.84798 8.58083 5.83857L7.28 5.66191C5.56833 5.42857 3.92833 4.64024 2.355 3.32941C1.85667 6.08774 2.83 7.99857 5.17417 9.47274L6.63 10.3877C6.69917 10.4312 6.75664 10.491 6.79737 10.5618C6.83811 10.6326 6.86087 10.7123 6.86366 10.794C6.86646 10.8756 6.84921 10.9567 6.81341 11.0302C6.77762 11.1036 6.72437 11.1671 6.65833 11.2152L5.33167 12.1844C6.12083 12.2336 6.87 12.1986 7.49167 12.0752C11.4233 11.2902 14.0375 8.3319 14.0375 3.45191C14.0375 3.05357 13.1942 1.66774 11.5875 1.66774ZM7.50417 4.0094C7.51871 3.20611 7.76991 2.42496 8.2263 1.76376C8.68269 1.10255 9.324 0.590671 10.0699 0.292211C10.8159 -0.00624947 11.6333 -0.0780284 12.4198 0.0858613C13.2063 0.249751 13.927 0.642026 14.4917 1.21357C15.0842 1.20941 15.5883 1.35941 16.7158 0.676072C16.4367 2.04274 16.2992 2.63607 15.7042 3.45191C15.7042 9.82024 11.79 12.9169 7.81833 13.7094C5.095 14.2527 1.135 13.3602 0 12.1752C0.578333 12.1302 2.92833 11.8777 4.28667 10.8836C3.1375 10.1261 -1.43667 7.4344 1.56917 0.197739C2.98 1.84524 4.41083 2.9669 5.86083 3.5619C6.82583 3.95774 7.0625 3.9494 7.505 4.01024L7.50417 4.0094Z" fill="#BABEC4"/>
</svg>
